<svg width="54" height="35" viewBox="0 0 54 35" fill="none" xmlns="http://www.w3.org/2000/svg">
<path d="M36.0589 0.665527H18.6694C9.96839 0.665527 0.721191 2.81177 0.721191 6.78999C0.721191 7.70155 1.26106 9.03373 3.77307 10.29V32.1682C3.77307 33.6982 5.01804 34.943 6.54793 34.943C12.632 34.943 42.2617 34.943 48.1725 34.943C49.7025 34.943 50.9474 33.6981 50.9474 32.1682V10.2906C53.4601 9.03373 54 7.70207 54 6.78999C54 2.81177 44.7565 0.665527 36.0589 0.665527ZM6.54804 33.8331C5.62991 33.8331 4.88308 33.0863 4.88308 32.1682V9.94207C4.88308 9.72635 4.75841 9.5301 4.56278 9.43904C2.80135 8.61686 1.8312 7.67595 1.8312 6.78988C1.8312 4.41825 8.74631 1.77554 18.6695 1.77554C28.5883 1.77554 35.5002 4.41825 35.5002 6.78988C35.5002 7.67595 34.53 8.61686 32.7686 9.43904C32.5728 9.5301 32.4483 9.72635 32.4483 9.94207V33.8331C26.8816 33.8331 12.5063 33.8331 6.54804 33.8331ZM50.158 9.43915C49.9622 9.5302 49.8377 9.72646 49.8377 9.94217V32.1683C49.8377 33.0864 49.0908 33.8332 48.1727 33.8332H33.5582V10.29C36.0702 9.03373 36.6101 7.70155 36.6101 6.78999C36.6101 4.47975 33.4899 2.78856 29.1724 1.77564H36.0589C45.9777 1.77564 52.8901 4.41835 52.8901 6.78999C52.89 7.67606 51.9198 8.61697 50.158 9.43915Z" fill="#535353"/>
<path d="M30.2282 32.1673H7.10305C6.79628 32.1673 6.54809 31.9191 6.54809 31.6124V8.52716C5.5923 8.06253 4.74993 7.74869 4.03931 7.2286C3.73608 7.00695 3.73649 6.55241 4.04201 6.33108C5.42685 5.33106 10.2656 3.44019 18.6695 3.44019C27.0685 3.44019 31.9053 5.33116 33.2895 6.33108C33.5949 6.55231 33.5955 7.00684 33.2922 7.2286C32.5821 7.74859 31.7352 8.0643 30.7834 8.52716V31.6123C30.7832 31.919 30.535 32.1673 30.2282 32.1673ZM7.6581 31.0573H29.6734V8.17378C29.6734 7.95806 29.798 7.7618 29.9937 7.67075C31.4595 6.98478 31.5976 6.92682 31.8782 6.78572C29.8083 5.76135 25.2124 4.54999 18.6696 4.54999C12.1226 4.54999 7.52376 5.76125 5.45286 6.78572C5.68127 6.90195 5.80229 6.95284 7.33791 7.67075C7.53365 7.7618 7.65821 7.95806 7.65821 8.17378L7.6581 31.0573Z" fill="#535353"/>
</svg>
