<?xml version="1.0" encoding="UTF-8" standalone="no"?>
<svg
   width="50"
   height="47"
   viewBox="0 0 50 47"
   fill="none"
   version="1.1"
   id="svg4"
   sodipodi:docname="cake.svg"
   inkscape:version="1.3.2 (091e20e, 2023-11-25)"
   xmlns:inkscape="http://www.inkscape.org/namespaces/inkscape"
   xmlns:sodipodi="http://sodipodi.sourceforge.net/DTD/sodipodi-0.dtd"
   xmlns="http://www.w3.org/2000/svg"
   xmlns:svg="http://www.w3.org/2000/svg">
  <sodipodi:namedview
     id="namedview4"
     pagecolor="#ffffff"
     bordercolor="#000000"
     borderopacity="0.25"
     inkscape:showpageshadow="2"
     inkscape:pageopacity="0.0"
     inkscape:pagecheckerboard="0"
     inkscape:deskcolor="#d1d1d1"
     inkscape:zoom="4.0656651"
     inkscape:cx="9.3465641"
     inkscape:cy="15.126676"
     inkscape:window-width="1512"
     inkscape:window-height="856"
     inkscape:window-x="0"
     inkscape:window-y="38"
     inkscape:window-maximized="1"
     inkscape:current-layer="svg4" />
  <g
     filter="url(#filter0_d_42_894)"
     id="g2">
    <path
       d="M45.9955 20.8111C45.9949 20.8007 45.9997 20.7908 45.9984 20.7803C45.0797 13.0011 39.9772 8.39027 30.8323 7.07444C30.719 7.05796 30.6041 7.06099 30.4894 7.05872C30.4859 7.05446 30.4828 7.04949 30.4791 7.04523C29.6527 6.10085 28.5122 5.43644 27.2143 5.23373C27.4043 4.64197 27.6885 4.02495 28.1206 3.51779C28.2963 3.31217 28.2706 3.00342 28.063 2.829C27.8553 2.65394 27.5445 2.68003 27.3695 2.88629C26.785 3.5721 26.4282 4.40134 26.2076 5.16136H26.2066C25.7275 5.17437 25.2616 5.24606 24.822 5.37645C24.8167 5.37796 24.8115 5.38023 24.8063 5.38174C24.3003 3.1736 22.8897 1.2931 20.7779 0.0636394C20.57 -0.0566766 20.2944 -0.000654758 20.1406 0.183317C18.3332 2.34582 17.5818 4.91576 18.025 7.41948C18.083 7.74772 18.165 8.06749 18.2626 8.38113C16.3931 7.99118 14.4584 8.43441 12.8252 9.6462C12.6283 9.78963 12.5758 10.0569 12.6874 10.272C13.5925 12.0242 14.9823 13.2816 16.6477 13.8818L4.26337 20.4053C4.19696 20.44 4.01259 20.6218 4.00605 20.8196C4.00589 20.8217 4.00493 20.8237 4.00493 20.8258C3.99836 20.8323 3.99836 20.8323 4.00493 20.8389C4.00493 26.6264 4.00493 30.9183 4.00493 35.9232C4.00493 37.618 5.38974 39 7.10253 39H42.9024C44.6086 39 46 37.618 46 35.9232C46 30.1226 46 26.2068 46 20.8323C45.9998 20.8247 45.9958 20.8186 45.9955 20.8111ZM45.0156 31.8816H4.98934V27.4684H45.0156V31.8816ZM4.98934 26.4906V21.3278H45.0156V26.4906H4.98934ZM25.9791 6.15858C25.8628 6.84216 25.8541 7.33731 25.8538 7.38445C25.8516 7.65437 26.0701 7.87463 26.3418 7.87718C26.3434 7.87718 26.346 7.87718 26.346 7.87718C26.6162 7.87718 26.836 7.66074 26.8382 7.39209C26.8384 7.38131 26.847 6.87522 26.9738 6.1912L26.9746 6.19128C29.1403 6.49115 30.8137 8.33597 30.8137 10.5654C30.8137 13.0099 28.8056 14.9916 26.338 14.9916C24.8154 14.9916 23.4766 14.2354 22.6759 13.0816C20.7298 10.2838 22.5657 6.42467 25.977 6.15869L25.9791 6.15858ZM20.6392 1.12801C22.3593 2.24455 23.4948 3.86723 23.8831 5.74554C22.3773 6.50269 21.2709 7.94103 20.9827 9.64619C20.5108 9.27514 19.9932 8.9757 19.4426 8.74771C19.2391 8.27043 19.0863 7.77051 18.9943 7.25013C18.6223 5.14746 19.2116 2.9805 20.6392 1.12801ZM13.7573 10.1873C15.1222 9.31377 16.6711 9.02042 18.1673 9.3594C19.1976 9.6006 20.1297 10.1156 20.904 10.8717C20.9433 11.5236 21.0944 12.1494 21.3503 12.7231C20.1689 13.2902 18.8892 13.4466 17.6424 13.1598C16.0343 12.7882 14.6628 11.7322 13.7573 10.1873ZM18.091 14.2282L18.0951 14.2289C18.3576 14.2615 18.6202 14.281 18.8826 14.281C19.8868 14.281 20.8843 14.0463 21.8227 13.577C22.8006 15.0177 24.461 15.9694 26.338 15.9694C29.3502 15.9694 31.7981 13.5444 31.7981 10.5654C31.7981 9.68618 31.5885 8.85909 31.2085 8.12955C39.4249 9.44829 43.9341 13.4465 44.9483 20.348H6.47285L18.091 14.2282ZM42.9024 38.0222H7.10253C5.93434 38.0222 4.98934 37.0835 4.98934 35.9232V32.8594H45.0156V35.9232C45.0156 37.0835 44.0706 38.0222 42.9024 38.0222Z"
       fill="#FF4A4C"
       id="path1" />
    <path
       style="color:#000000;fill:#ff4a4c;-inkscape-stroke:none"
       d="m 25.976562,6.1582031 c -0.07284,0.00567 -0.145298,0.012522 -0.216796,0.021484 L 25.210937,6.25 24.976562,6.7539062 c -0.03226,0.069729 -0.05892,0.1414444 -0.08008,0.2148438 L 24.296875,9.0546875 26.271484,8.15625 26.46875,8.0664063 26.417969,7.8671875 26.115234,8.0878906 25.898437,7.2460937 26.261719,7.2636719 26.244141,7.1972656 25.880859,7.1777344 25.726562,6.578125 26.1875,6.9765625 Z m 0.480469,1.0527344 0.07813,0.066406 0.322266,0.015625 c 8.52e-4,-0.017877 6.82e-4,-0.037717 0.002,-0.060547 z"
       id="path2" />
  </g>
  <defs
     id="defs4">
    <filter
       id="filter0_d_42_894"
       x="0"
       y="0"
       width="50"
       height="47"
       filterUnits="userSpaceOnUse"
       color-interpolation-filters="sRGB">
      <feFlood
         flood-opacity="0"
         result="BackgroundImageFix"
         id="feFlood2" />
      <feColorMatrix
         in="SourceAlpha"
         type="matrix"
         values="0 0 0 0 0 0 0 0 0 0 0 0 0 0 0 0 0 0 127 0"
         result="hardAlpha"
         id="feColorMatrix2" />
      <feOffset
         dy="4"
         id="feOffset2" />
      <feGaussianBlur
         stdDeviation="2"
         id="feGaussianBlur2" />
      <feComposite
         in2="hardAlpha"
         operator="out"
         id="feComposite2" />
      <feColorMatrix
         type="matrix"
         values="0 0 0 0 0 0 0 0 0 0 0 0 0 0 0 0 0 0 0.25 0"
         id="feColorMatrix3" />
      <feBlend
         mode="normal"
         in2="BackgroundImageFix"
         result="effect1_dropShadow_42_894"
         id="feBlend3" />
      <feBlend
         mode="normal"
         in="SourceGraphic"
         in2="effect1_dropShadow_42_894"
         result="shape"
         id="feBlend4" />
    </filter>
  </defs>
</svg>
