<?xml version="1.0" standalone="no"?>
<!DOCTYPE svg PUBLIC "-//W3C//DTD SVG 20010904//EN"
 "http://www.w3.org/TR/2001/REC-SVG-20010904/DTD/svg10.dtd">
<svg version="1.0" xmlns="http://www.w3.org/2000/svg"
 width="512.000000pt" height="512.000000pt" viewBox="0 0 512.000000 512.000000"
 preserveAspectRatio="xMidYMid meet">

<g transform="translate(0.000000,512.000000) scale(0.100000,-0.100000)"
fill="#000000" stroke="none">
<path d="M1743 4258 l-783 -783 0 343 0 342 -80 0 -80 0 0 -335 0 -336 -25
-24 c-20 -21 -34 -25 -80 -25 l-55 0 0 360 0 360 -80 0 -80 0 0 -360 0 -360
-55 0 c-46 0 -60 4 -80 25 l-25 24 0 336 0 335 -80 0 -80 0 0 -336 c0 -235 4
-349 12 -378 16 -55 99 -138 154 -154 23 -7 67 -12 98 -12 l56 0 0 -142 0
-142 -200 -201 c-180 -181 -200 -204 -200 -235 0 -29 15 -48 120 -155 l120
-121 0 -637 0 -638 25 -24 c24 -25 26 -25 215 -25 189 0 191 0 215 25 l25 24
0 398 0 398 863 -863 c812 -812 864 -862 897 -862 33 0 89 54 977 942 l943
943 0 -478 0 -478 25 -24 c24 -25 26 -25 215 -25 189 0 191 0 215 25 l25 24 0
717 0 717 40 43 c66 72 61 86 -80 229 l-120 121 0 637 0 638 -26 26 c-24 24
-30 25 -91 20 -139 -13 -257 -96 -321 -225 l-37 -76 -3 -270 -3 -269 -862 861
c-812 812 -864 862 -897 862 -33 0 -81 -46 -817 -782z m1142 262 l319 -319
-92 29 c-333 108 -660 117 -1001 30 -46 -11 -107 -30 -135 -41 -28 -10 -53
-19 -56 -19 -3 0 139 144 315 320 176 176 322 320 325 320 3 0 149 -144 325
-320z m-22 -390 c642 -126 1140 -625 1269 -1273 29 -147 32 -433 5 -572 -92
-471 -358 -856 -760 -1099 -153 -92 -348 -165 -542 -203 -139 -27 -425 -24
-572 5 -651 130 -1145 624 -1275 1275 -32 161 -32 433 0 594 140 701 708 1221
1417 1297 96 10 353 -3 458 -24z m1777 -700 l0 -550 -55 0 c-46 0 -60 4 -80
25 l-25 24 0 432 c0 310 3 443 12 473 13 45 105 146 132 146 14 0 16 -58 16
-550z m-3880 -153 c0 -1 -27 -29 -60 -62 l-60 -59 0 62 0 62 60 0 c33 0 60 -1
60 -3z m129 -170 c-53 -155 -89 -369 -89 -524 l0 -72 -25 24 c-20 21 -34 25
-80 25 l-55 0 0 182 0 183 137 137 c75 76 138 136 139 135 1 -1 -11 -41 -27
-90z m3431 -101 c0 -110 15 -151 75 -211 56 -57 102 -75 189 -75 l56 0 0 -80
0 -80 -55 0 c-46 0 -60 -4 -80 -25 -24 -24 -25 -28 -25 -182 l0 -158 -140
-140 c-77 -77 -140 -138 -140 -135 0 3 9 28 20 56 23 63 63 221 81 324 8 44
14 151 14 260 0 109 -6 216 -14 260 -18 103 -58 261 -81 324 -11 28 -20 53
-20 56 0 2 27 -22 60 -55 l60 -59 0 -80z m-3840 -346 l0 -100 -55 0 c-46 0
-60 -4 -80 -24 l-24 -24 -22 24 -23 25 99 99 c55 55 101 100 102 100 2 0 3
-45 3 -100z m4345 -80 c18 -19 17 -20 -3 -20 -15 0 -22 6 -22 20 0 11 2 20 3
20 2 0 12 -9 22 -20z m-3990 -363 c13 -67 56 -219 82 -287 3 -8 -22 12 -56 45
l-61 59 1 201 c1 154 3 184 10 132 4 -38 15 -105 24 -150z m-195 -457 l0 -640
-80 0 -80 0 0 640 0 640 80 0 80 0 0 -640z m4160 0 l0 -640 -80 0 -80 0 0 640
0 640 80 0 80 0 0 -640z m-2824 -859 c28 -11 89 -30 135 -41 341 -87 668 -78
1001 30 l92 29 -322 -322 -322 -322 -322 323 c-178 177 -321 322 -318 322 3 0
28 -9 56 -19z"/>
<path d="M2375 3989 c-235 -32 -482 -132 -670 -271 -90 -66 -236 -213 -302
-302 -471 -637 -339 -1530 296 -2007 113 -85 280 -173 404 -214 593 -195 1233
5 1608 504 127 169 213 361 261 579 31 140 31 424 0 564 -81 369 -282 677
-580 891 -156 112 -368 203 -562 242 -93 19 -361 27 -455 14z m374 -165 c552
-81 994 -523 1075 -1075 30 -200 13 -394 -49 -584 -65 -200 -160 -352 -314
-506 -201 -202 -440 -323 -712 -363 -703 -104 -1351 380 -1455 1084 -57 393
78 802 358 1077 95 93 120 114 203 170 157 105 378 186 565 206 88 9 232 6
329 -9z"/>
<path d="M2466 3430 c-63 -16 -153 -70 -197 -117 -69 -75 -99 -154 -109 -285
-9 -139 -32 -205 -105 -315 -122 -181 -157 -335 -119 -521 70 -346 412 -570
758 -497 341 72 564 416 491 758 -18 88 -50 157 -120 260 -74 110 -96 176
-105 316 -8 102 -12 122 -44 186 -66 133 -188 214 -334 221 -42 2 -94 -1 -116
-6z m168 -162 c55 -16 138 -99 154 -154 7 -23 12 -68 12 -100 1 -131 49 -270
142 -406 58 -84 88 -165 95 -253 25 -320 -283 -580 -590 -500 -135 35 -252
127 -311 247 -86 170 -71 342 42 506 93 136 142 274 142 400 0 95 17 139 75
197 70 71 145 90 239 63z"/>
<path d="M2460 2624 c-142 -52 -229 -183 -218 -327 26 -318 443 -407 597 -127
33 60 36 71 36 150 -1 72 -5 93 -27 136 -39 75 -70 107 -138 143 -76 41 -179
51 -250 25z m163 -158 c103 -43 128 -177 48 -257 -65 -65 -157 -65 -222 0
-124 123 13 325 174 257z"/>
</g>
</svg>
