<svg width="40" height="40" viewBox="0 0 40 40" fill="none" xmlns="http://www.w3.org/2000/svg">
<path d="M37.8554 20.1845C37.8472 23.8431 36.7447 27.3956 34.6949 30.4254C32.7267 33.3327 29.8521 35.6439 26.6018 36.975C23.18 38.3797 19.358 38.69 15.7483 37.8897C12.253 37.1139 9.06806 35.2845 6.59358 32.7039C1.48945 27.3956 0.150121 19.2208 3.25343 12.5487C4.74792 9.33106 7.18157 6.60341 10.1951 4.74142C13.3147 2.80593 16.9733 1.89944 20.632 2.06277C27.8839 2.38944 34.3927 7.2894 36.8182 14.1085C37.5124 16.0603 37.8554 18.1183 37.8554 20.1845C37.8554 20.9766 39.0804 20.9766 39.0804 20.1845C39.064 12.7529 34.703 5.83575 27.9656 2.65893C24.5356 1.04195 20.7055 0.511116 16.9488 1.01745C13.3229 1.50744 9.90105 3.11626 7.11624 5.47642C1.39145 10.3355 -0.944205 18.3388 1.10561 25.5418C3.12277 32.6222 9.26406 38.0775 16.516 39.278C20.2645 39.8987 24.1028 39.4005 27.5818 37.8815C30.8892 36.436 33.7231 34.0106 35.7565 31.0379C37.937 27.8611 39.0804 24.0228 39.0885 20.1763C39.0885 19.3923 37.8635 19.3923 37.8554 20.1845Z" fill="#535353"/>
<path d="M14.7357 10.9321C14.7112 11.8059 14.0416 12.4756 13.1677 12.5001C12.2939 12.5246 11.6242 11.7732 11.5998 10.9321C11.5753 10.0582 12.3266 9.38858 13.1677 9.36408C14.0416 9.33958 14.7112 10.0909 14.7357 10.9321C14.7521 11.7242 15.9771 11.7242 15.9607 10.9321C15.9199 9.38041 14.7194 8.17992 13.1677 8.13909C11.6161 8.09826 10.4156 9.44575 10.3748 10.9321C10.3339 12.4837 11.6814 13.6842 13.1677 13.725C14.7194 13.7659 15.9199 12.4184 15.9607 10.9321C15.9771 10.1399 14.7521 10.1399 14.7357 10.9321ZM29.011 17.8329C28.9865 19.605 27.8595 21.1812 26.169 21.7365C24.4785 22.2918 22.5757 21.6467 21.5467 20.2012C20.5259 18.7557 20.5504 16.7222 21.6447 15.3257C22.7717 13.8802 24.6745 13.3902 26.3731 13.9945C27.9656 14.558 28.9865 16.175 29.011 17.8329C29.0191 18.625 30.2441 18.625 30.236 17.8329C30.2115 15.9137 29.1988 14.1579 27.5328 13.1942C25.8587 12.2224 23.7272 12.3041 22.0938 13.3004C20.4605 14.2967 19.5132 16.1587 19.5785 18.0615C19.6439 19.9562 20.7872 21.7038 22.4613 22.5695C24.111 23.427 26.1363 23.3208 27.7125 22.3572C29.2805 21.4017 30.2115 19.6458 30.2278 17.8247C30.2441 17.0407 29.0191 17.0407 29.011 17.8329ZM12.1959 18.6985C12.1714 19.7928 11.3221 20.6422 10.2278 20.6667C9.13343 20.6912 8.28411 19.7602 8.25961 18.6985C8.23511 17.6042 9.1661 16.7549 10.2278 16.7304C11.3221 16.714 12.1714 17.645 12.1959 18.6985C12.2122 19.4907 13.4372 19.4907 13.4209 18.6985C13.3801 16.9345 11.9917 15.5462 10.2278 15.5054C8.46377 15.4645 7.07545 16.9917 7.03461 18.6985C6.99378 20.4625 8.52094 21.8508 10.2278 21.8917C11.9917 21.9325 13.3801 20.4053 13.4209 18.6985C13.4372 17.9145 12.2122 17.9145 12.1959 18.6985ZM22.8207 30.1563C22.7962 31.9529 21.5712 33.4637 19.8317 33.8966C18.0759 34.3294 16.3037 33.3576 15.5197 31.7733C14.7439 30.2053 15.2747 28.18 16.6467 27.1265C18.0677 26.0403 20.1012 26.073 21.465 27.2326C22.3307 27.9676 22.8043 29.0374 22.8207 30.1563C22.8288 30.9484 24.0538 30.9484 24.0457 30.1563C24.0212 28.2453 22.9513 26.4813 21.2282 25.6238C19.4805 24.7581 17.3327 25.0113 15.8219 26.2281C14.3029 27.4531 13.6659 29.4294 14.0824 31.3241C14.4826 33.1698 16.0261 34.6316 17.8309 35.0726C20.9832 35.8402 24.013 33.3413 24.0457 30.1563C24.0538 29.3723 22.8288 29.3723 22.8207 30.1563ZM33.2086 27.1101C33.1841 28.1146 32.4083 28.8904 31.4038 28.9149C30.3993 28.9394 29.6235 28.0738 29.599 27.1101C29.5745 26.1056 30.4401 25.3298 31.4038 25.3053C32.4083 25.2808 33.1841 26.1383 33.2086 27.1101C33.2249 27.9023 34.4499 27.9023 34.4336 27.1101C34.3928 25.436 33.0779 24.1211 31.4038 24.0803C29.7296 24.0395 28.4066 25.4931 28.374 27.1101C28.3331 28.7843 29.7868 30.1073 31.4038 30.1399C33.0779 30.1808 34.4009 28.7271 34.4336 27.1101C34.4499 26.318 33.2249 26.318 33.2086 27.1101Z" fill="#535353"/>
<path d="M27.2628 8.51439C27.2383 9.92722 26.1194 11.046 24.7066 11.0705C23.2938 11.095 22.175 9.88638 22.1505 8.51439C22.126 7.10157 23.3346 5.98274 24.7066 5.95824C26.1194 5.92558 27.2383 7.13424 27.2628 8.51439C27.2791 9.30655 28.5041 9.30655 28.4877 8.51439C28.4551 6.49724 26.9198 4.91292 24.9271 4.73325C22.9508 4.56175 21.1868 6.13791 20.95 8.05706C20.7131 10.0007 22.0606 11.8464 23.9798 12.222C25.9398 12.6059 27.8589 11.3482 28.3652 9.44539C28.4469 9.14322 28.4796 8.82472 28.4796 8.50623C28.5041 7.72223 27.2791 7.72223 27.2628 8.51439Z" fill="#535353"/>
</svg>
