<svg width="40" height="41" viewBox="0 0 40 41" fill="none" xmlns="http://www.w3.org/2000/svg">
<path d="M17.6274 26.0775C16.7475 26.0775 15.88 25.7367 15.2232 25.0799C14.1265 23.9832 13.9096 22.2792 14.7027 20.947L24.1087 5.09689C24.7159 4.07451 25.7445 3.39911 26.9218 3.2504C28.0991 3.10169 29.264 3.49825 30.1005 4.34095L35.9622 10.2026C36.8049 11.0453 37.2014 12.204 37.0527 13.3813C36.904 14.5648 36.2348 15.5872 35.2062 16.1944L19.3561 25.6004C18.8171 25.9164 18.2222 26.0775 17.6274 26.0775ZM27.3989 5.10309C27.3184 5.10309 27.2378 5.10929 27.1511 5.11548C26.55 5.18984 26.0295 5.53064 25.7259 6.05112L16.3262 21.9074C15.973 22.5023 16.0659 23.2582 16.5554 23.7477C17.0449 24.2372 17.8009 24.3302 18.3957 23.977L34.2458 14.571C34.7663 14.2612 35.1071 13.7407 35.1815 13.1459C35.2558 12.5448 35.0575 11.9562 34.63 11.5286L28.7683 5.66695C28.4027 5.30757 27.9132 5.10309 27.3989 5.10309Z" fill="#535353"/>
<path d="M36.2101 32.7384C35.8383 32.7384 35.4665 32.6702 35.101 32.5401L17.7761 26.2385C17.5159 26.1393 17.3114 26.034 17.1193 25.9039C16.6918 25.6065 16.5864 25.024 16.8777 24.5903C17.1751 24.1627 17.7637 24.0574 18.1913 24.3548C18.2532 24.3982 18.3276 24.4354 18.4329 24.4725L35.7392 30.768C36.2782 30.9663 36.6934 30.7866 36.9412 30.6069C37.4927 30.2041 37.8087 29.3862 37.7654 28.4815L37.2944 18.4869C37.2201 16.9503 36.2163 15.8473 35.3178 15.7792C34.7973 15.742 34.407 15.2896 34.4503 14.7692C34.4875 14.2487 34.9398 13.8707 35.4603 13.9017C37.4308 14.0504 39.0666 16.027 39.1781 18.4002L39.649 28.401C39.7172 29.9563 39.1223 31.3442 38.0566 32.1312C37.5051 32.5277 36.8669 32.7384 36.2101 32.7384Z" fill="#535353"/>
<path d="M19.2942 25.4887C19.065 25.4887 18.8295 25.402 18.6498 25.2347C18.2718 24.8753 18.2533 24.2866 18.6064 23.9087L18.6126 23.9025C18.972 23.5245 19.5669 23.5059 19.9448 23.8653C20.3228 24.2247 20.3414 24.8195 19.982 25.1975C19.7961 25.3896 19.5483 25.4887 19.2942 25.4887ZM15.1861 23.4439C14.8949 23.4439 14.6036 23.3076 14.4178 23.0474C14.3124 22.8987 14.2628 22.7624 14.2319 22.6756L7.94263 5.38176C7.57086 4.36557 7.72576 3.28742 8.35159 2.43233C9.13852 1.36657 10.5327 0.759334 12.0879 0.839886L22.0888 1.3108C24.2761 1.41614 26.1349 2.79791 26.5129 4.60103C26.6182 5.10913 26.296 5.61103 25.7879 5.71636C25.2798 5.8217 24.7779 5.49949 24.6726 4.9914C24.4991 4.1611 23.4519 3.26263 22.002 3.19448L12.0012 2.71736C11.0903 2.68018 10.2786 2.99619 9.86968 3.54766C9.68999 3.79552 9.51649 4.20447 9.70858 4.73735L15.9978 22.0374C16.2333 22.4525 16.1217 22.9854 15.7252 23.2704C15.5641 23.3882 15.372 23.4439 15.1861 23.4439ZM28.0248 40.4837C27.1759 40.4837 26.0978 40.1739 24.9824 39.0462C23.9848 38.0424 23.3156 36.6544 23.0554 35.0496C22.4358 31.1893 21.4753 28.2213 20.4839 27.1059C20.1369 26.7156 20.1741 26.1207 20.5645 25.7737C20.9548 25.4268 21.5497 25.4639 21.8967 25.8543C23.5015 27.6636 24.4248 31.685 24.9143 34.746C25.1125 35.9666 25.6021 36.9952 26.3208 37.7202C27.0086 38.4204 27.6654 38.6992 28.3284 38.5691C30.0076 38.2469 32.0462 35.5143 33.9237 31.0654C34.1281 30.5883 34.6796 30.359 35.1567 30.5635C35.6338 30.768 35.8631 31.3194 35.6586 31.7965C33.4404 37.0572 31.0982 39.9571 28.6816 40.4218C28.4895 40.459 28.2665 40.4837 28.0248 40.4837Z" fill="#535353"/>
<path d="M14.0026 20.2345C13.7795 20.2345 13.5565 20.1539 13.3768 19.999C12.2491 19.0014 9.35538 18.0658 5.43313 17.4275C3.8283 17.1673 2.44652 16.5043 1.43653 15.5005C-0.013403 14.0754 -0.106347 12.6998 0.0609524 11.7951C0.525674 9.38477 3.42554 7.03637 8.68619 4.8181C9.1633 4.61362 9.72097 4.84289 9.91925 5.32C10.1237 5.79711 9.89446 6.35478 9.41735 6.55306C4.96841 8.42434 2.23585 10.4629 1.91364 12.1483C1.78352 12.8113 2.06235 13.4681 2.76253 14.1559C3.4937 14.8809 4.52228 15.3642 5.73675 15.5625C8.80392 16.0582 12.8315 16.9876 14.6346 18.5863C15.025 18.9332 15.0622 19.5281 14.7152 19.9185C14.5231 20.1291 14.2628 20.2345 14.0026 20.2345Z" fill="#535353"/>
<path d="M31.1415 12.0736C30.6211 12.0736 30.1997 11.6523 30.1997 11.1318C30.1997 10.3572 29.5677 9.72522 28.7932 9.72522C28.2727 9.72522 27.8513 9.30388 27.8513 8.78339C27.8513 8.2629 28.2727 7.84155 28.7932 7.84155C30.6087 7.84155 32.0834 9.31627 32.0834 11.1318C32.0834 11.6523 31.662 12.0736 31.1415 12.0736Z" fill="#535353"/>
<path d="M35.2248 26.5606C35.0017 26.5606 34.7725 26.48 34.5928 26.3189C34.2086 25.9719 34.1714 25.3771 34.5246 24.9867C35.0451 24.4105 34.9956 23.5182 34.4193 22.9977C34.0351 22.6507 33.9979 22.0559 34.3511 21.6655C34.6981 21.2813 35.293 21.2442 35.6833 21.5974C36.3401 22.186 36.7243 22.9915 36.7739 23.8714C36.8235 24.7513 36.5198 25.594 35.9374 26.2508C35.7391 26.4552 35.4789 26.5606 35.2248 26.5606Z" fill="#535353"/>
<path d="M18.2533 6.28032C17.9806 6.28032 17.7142 6.16259 17.5283 5.93952C17.2867 5.6483 16.9459 5.4686 16.5741 5.43762C16.1961 5.40044 15.8367 5.51817 15.5455 5.75983C15.1427 6.09443 14.5479 6.03866 14.2195 5.6359C13.8849 5.23315 13.9407 4.6445 14.3434 4.3099C15.0188 3.74604 15.8739 3.48579 16.7476 3.56634C17.6213 3.6469 18.4144 4.06205 18.9782 4.74364C19.3128 5.1464 19.2571 5.73504 18.8543 6.06964C18.6808 6.21216 18.464 6.28032 18.2533 6.28032Z" fill="#535353"/>
</svg>
