<?xml version="1.0" encoding="UTF-8" standalone="no"?>
<svg
   width="42"
   height="41"
   viewBox="0 0 42 41"
   fill="none"
   version="1.1"
   id="svg1"
   sodipodi:docname="donut.svg"
   inkscape:version="1.3.2 (091e20e, 2023-11-25)"
   xmlns:inkscape="http://www.inkscape.org/namespaces/inkscape"
   xmlns:sodipodi="http://sodipodi.sourceforge.net/DTD/sodipodi-0.dtd"
   xmlns="http://www.w3.org/2000/svg"
   xmlns:svg="http://www.w3.org/2000/svg">
  <defs
     id="defs1" />
  <sodipodi:namedview
     id="namedview1"
     pagecolor="#ffffff"
     bordercolor="#000000"
     borderopacity="0.25"
     inkscape:showpageshadow="2"
     inkscape:pageopacity="0.0"
     inkscape:pagecheckerboard="0"
     inkscape:deskcolor="#d1d1d1"
     inkscape:zoom="7.0192024"
     inkscape:cx="7.4082491"
     inkscape:cy="19.090488"
     inkscape:window-width="1376"
     inkscape:window-height="449"
     inkscape:window-x="0"
     inkscape:window-y="38"
     inkscape:window-maximized="0"
     inkscape:current-layer="svg1" />
  <path
     style="color:#000000;fill:#535353;-inkscape-stroke:none"
     d="m 20.923828,0.02734375 c -11.0961181,0 -20.10742175,9.01129545 -20.10742175,20.10742225 0,11.096116 9.01130785,20.107421 20.10742175,20.107421 11.09621,0 20.107422,-9.011307 20.107422,-20.107421 0,-11.096124 -9.011207,-20.10742225 -20.107422,-20.10742225 z m 0,1.49999995 c 10.285564,0 18.607422,8.321947 18.607422,18.6074223 0,10.285464 -8.321854,18.607421 -18.607422,18.607421 -10.285464,0 -18.6074217,-8.32196 -18.6074217,-18.607421 0,-10.2854725 8.3219617,-18.6074223 18.6074217,-18.6074223 z m 1.621094,0.8710938 -2.150391,2.1503906 1.060547,1.0605469 2.150391,-2.1503906 z m -7.542969,2.1503906 -1.060547,1.0605469 2.150391,2.1503906 1.060547,-1.0605469 z m 11.625,0.5292969 v 4.3027344 h 1.5 V 5.078125 Z M 20.394531,8.8496094 18.244141,11 19.304687,12.0625 21.455078,9.9101563 Z M 9.4199219,9.3808594 V 13.681641 H 10.919922 V 9.3808594 Z M 31.148437,11 l -2.15039,2.152344 1.060547,1.060547 2.15039,-2.150391 z m -10.224609,1.931641 c -3.969005,0 -7.201172,3.234134 -7.201172,7.203125 0,3.968991 3.232181,7.201171 7.201172,7.201171 3.968991,0 7.203125,-3.232166 7.203125,-7.201171 0,-3.969005 -3.23412,-7.203125 -7.203125,-7.203125 z m 0,1.5 c 3.158388,0 5.703125,2.544737 5.703125,5.703125 0,3.158387 -2.544723,5.701171 -5.703125,5.701171 -3.158402,0 -5.701172,-2.54277 -5.701172,-5.701171 0,-3.158402 2.542784,-5.703125 5.701172,-5.703125 z m -13.4335936,0.871093 -2.1523438,2.150391 1.0605469,1.060547 2.1523438,-2.150391 z m 26.8691406,0 -1.060547,1.060547 2.150391,2.150391 1.060547,-1.060547 z M 9.4199219,20.134766 v 4.300781 h 1.5000001 v -4.300781 z m 23.6601561,2.15039 v 4.300781 h 1.5 v -4.300781 z m -25.5898436,3.771485 -2.1523438,2.15039 1.0605469,1.060547 2.1523438,-2.150391 z m 20.4179686,2.15039 -1.0625,1.060547 2.152344,2.150391 1.060547,-1.060547 z m -14.185547,2.681641 v 4.300781 h 1.5 v -4.300781 z m 8.822266,1.621094 -2.150391,2.15039 1.060547,1.060547 2.150391,-2.150391 z"
     id="path1" />
</svg>
