<svg width="64" height="64" viewBox="0 0 64 64" fill="none" xmlns="http://www.w3.org/2000/svg">
<path fill-rule="evenodd" clip-rule="evenodd" d="M32 2.2069C15.5457 2.2069 2.2069 15.5457 2.2069 32C2.2069 37.0335 3.45517 41.7756 5.65906 45.9334L10.5601 43.1037C10.427 41.5251 10.6452 39.9099 11.317 38.3394C11.4217 38.0945 11.6116 37.8957 11.8514 37.7799C14.4989 36.5008 17.363 36.653 19.96 37.6767L20.3528 37.4499C18.2483 36.6777 16.2898 35.2949 14.7201 33.6273C11.3625 30.0603 9.30611 24.7066 11.317 20.005C11.4217 19.76 11.6116 19.5612 11.8514 19.4454C16.3793 17.2579 21.4908 19.5182 24.8359 23.0721C27.2063 25.5908 28.9281 28.9999 29.0279 32.4414L30.897 31.3622V27.5415C26.7223 25.4983 24.785 20.7012 24.7857 16.1695C24.7863 11.3919 26.9411 6.31988 31.5989 4.49019C31.8583 4.38832 32.1465 4.38833 32.4059 4.49021C37.0633 6.32003 39.216 11.3924 39.2152 16.1698C39.2145 20.7007 37.2766 25.4966 33.1039 27.5404V30.0881L35.7408 28.5657C36.4804 26.5291 37.6986 24.6302 39.1651 23.0721C42.4263 19.6073 47.3666 17.372 51.808 19.2892L57.2353 16.1557C51.9629 7.77582 42.6317 2.2069 32 2.2069ZM58.3405 18.0659L53.0782 21.1043C54.3695 25.5225 52.3792 30.3356 49.2808 33.6273C46.0662 37.0425 41.2207 39.2632 36.8297 37.4906L33.1039 40.5815V55.3688L35.5139 53.3695C33.9378 48.8436 35.9636 44.0421 39.1952 40.8666C42.5721 37.5483 47.6708 35.6161 52.1494 37.7799C52.3892 37.8957 52.5792 38.0945 52.684 38.3394C54.6977 43.0479 52.6354 48.1574 49.2506 51.4833C46.0757 54.6029 41.379 56.4977 37.1069 54.9154L32.7051 58.5672C32.4988 58.7383 32.2487 58.8217 32 58.8214C31.7513 58.8217 31.5012 58.7383 31.2949 58.5672L26.8934 54.9157C22.6214 56.4975 17.925 54.6028 14.7502 51.4833C13.0501 49.8127 11.6836 47.692 10.9997 45.3982L6.76425 47.8436C12.0367 56.2239 21.368 61.7931 32 61.7931C48.4543 61.7931 61.7931 48.4543 61.7931 32C61.7931 26.9662 60.5447 22.2239 58.3405 18.0659ZM12.9786 44.2557C13.4648 46.3094 14.6534 48.2942 16.297 49.9091C18.74 52.3095 21.9192 53.6343 24.8072 53.185L23.5713 52.1596C23.1023 51.7705 23.0375 51.0748 23.4266 50.6058C23.8157 50.1368 24.5114 50.072 24.9804 50.4611L26.6328 51.832C27.3629 48.5783 25.897 45.033 23.2589 42.4407C22.297 41.4954 21.2208 40.7171 20.0932 40.148L12.9786 44.2557ZM17.3127 39.2051C15.9043 38.9578 14.4942 39.0636 13.1919 39.5972C12.9261 40.3291 12.7811 41.0825 12.7448 41.8423L17.3127 39.2051ZM22.3004 38.8738C23.2044 39.448 24.0484 40.1223 24.8057 40.8666C28.0374 44.0422 30.0632 48.844 28.4868 53.3701L30.897 55.3697V40.5815L27.1713 37.4906C26.0073 37.9606 24.8113 38.1498 23.6223 38.1106L22.3004 38.8738ZM28.7519 35.1491C28.7003 35.3626 28.6412 35.5755 28.5745 35.7873L30.897 37.7141V33.9106L28.7519 35.1491ZM33.1039 32.6364V37.7141L35.4263 35.7873C34.9855 34.387 34.8793 32.944 35.0381 31.5197L33.1039 32.6364ZM37.5753 30.0549C37.1754 31.4519 37.065 32.8728 37.3112 34.2236L39.0194 32.8063C39.4886 32.4172 40.1841 32.4821 40.5732 32.951C40.9623 33.4201 40.8977 34.1157 40.4286 34.5048L38.8756 35.7932C41.8097 36.3247 45.1199 34.8279 47.6738 32.1148C50.3212 29.3021 51.7931 25.5492 51.0908 22.2517L37.5753 30.0549ZM49.1201 20.8411C46.3014 20.5302 43.196 22.0095 40.7721 24.5847C40.1887 25.2046 39.6623 25.8701 39.2039 26.5663L49.1201 20.8411ZM26.7612 33.7501C27.1363 30.6301 25.691 27.2007 23.2288 24.5847C20.308 21.4817 16.3977 19.9697 13.1919 21.264C11.9214 24.7785 13.4112 29.0168 16.327 32.1148C18.3105 34.2219 20.7502 35.5954 23.1156 35.8549L24.3444 35.1454L23.5723 34.5048C23.1033 34.1157 23.0385 33.4201 23.4276 32.951C23.8167 32.4821 24.5124 32.4172 24.9814 32.8063L26.3825 33.9687L26.7612 33.7501ZM0 32C0 14.3269 14.3269 0 32 0C49.6731 0 64 14.3269 64 32C64 49.6731 49.6731 64 32 64C14.3269 64 0 49.6731 0 32ZM30.897 24.98V20.2014C30.897 19.5919 31.391 19.0979 32.0004 19.0979C32.6098 19.0979 33.1039 19.5919 33.1039 20.2014V24.9783C35.6357 23.1833 37.0077 19.7815 37.0083 16.1694C37.009 12.0628 35.237 8.22826 32.0023 6.71753C28.7666 8.22837 26.9931 12.0632 26.9926 16.1698C26.992 19.783 28.3639 23.1855 30.897 24.98ZM39.193 53.1848C42.0811 53.6346 45.2607 52.3098 47.7039 49.9091C50.5935 47.0698 52.077 43.0874 50.809 39.5972C47.5575 38.2648 43.6338 39.599 40.7419 42.4407C38.104 45.0328 36.6381 48.5779 37.3679 51.8315L39.0196 50.4611C39.4886 50.072 40.1843 50.1368 40.5734 50.6058C40.9625 51.0748 40.8977 51.7705 40.4287 52.1596L39.193 53.1848Z" fill="url(#paint0_linear_357_799)"/>
<defs>
<linearGradient id="paint0_linear_357_799" x1="5.51724" y1="5.51724" x2="58.4828" y2="58.4828" gradientUnits="userSpaceOnUse">
<stop stop-color="#808080"/>
<stop offset="1"/>
</linearGradient>
</defs>
</svg>
