<?xml version="1.0" standalone="no"?>
<!DOCTYPE svg PUBLIC "-//W3C//DTD SVG 20010904//EN"
 "http://www.w3.org/TR/2001/REC-SVG-20010904/DTD/svg10.dtd">
<svg version="1.0" xmlns="http://www.w3.org/2000/svg"
 width="512.000000pt" height="512.000000pt" viewBox="0 0 512.000000 512.000000"
 preserveAspectRatio="xMidYMid meet">

<g transform="translate(0.000000,512.000000) scale(0.100000,-0.100000)"
fill="#000000" stroke="none">
<path d="M2375 4874 c-380 -40 -704 -143 -997 -319 -608 -364 -1006 -958
-1115 -1665 -24 -160 -24 -500 0 -660 85 -545 340 -1024 739 -1386 343 -312
758 -508 1228 -581 160 -24 500 -24 660 0 547 85 1023 339 1388 741 310 341
506 757 579 1226 24 160 24 500 0 660 -48 309 -151 600 -302 852 -362 604
-960 1006 -1655 1113 -101 15 -441 28 -525 19z m427 -169 c476 -56 897 -252
1246 -580 149 -140 356 -405 330 -422 -7 -4 -96 -56 -197 -114 l-184 -107 -56
21 c-85 32 -297 31 -401 -1 -151 -48 -286 -130 -413 -251 -106 -101 -187 -211
-249 -338 -54 -111 -52 -109 -180 -182 l-58 -32 0 93 0 93 48 25 c65 34 209
181 255 260 53 92 92 199 117 321 19 89 21 126 17 254 -6 165 -25 259 -76 384
-43 103 -130 230 -204 295 -65 59 -200 136 -237 136 -43 0 -180 -82 -250 -149
-171 -167 -257 -380 -267 -666 -4 -128 -2 -165 17 -254 25 -121 64 -229 117
-321 46 -79 190 -226 256 -260 l47 -25 0 -140 0 -140 -62 -35 c-35 -19 -66
-36 -70 -38 -5 -2 -8 16 -8 41 0 73 -47 235 -99 342 -136 278 -387 500 -661
587 -63 19 -97 23 -205 23 -111 0 -140 -3 -200 -24 -94 -33 -116 -57 -145
-161 -110 -403 158 -915 594 -1134 98 -49 100 -67 3 -37 -177 54 -347 49 -494
-15 -28 -12 -58 -33 -67 -46 -26 -41 -56 -170 -61 -263 l-4 -90 -133 -78 c-73
-43 -152 -90 -175 -103 l-42 -25 -31 60 c-273 542 -291 1226 -47 1795 379 882
1286 1411 2229 1301z m-176 -351 c121 -80 215 -222 266 -399 31 -108 33 -371
4 -480 -38 -145 -135 -311 -220 -378 l-36 -28 0 184 c0 171 -1 186 -21 211
-16 20 -29 26 -59 26 -30 0 -43 -6 -59 -26 -20 -25 -21 -40 -21 -211 l0 -184
-40 32 c-87 70 -177 226 -216 374 -29 109 -27 371 4 480 38 133 97 240 177
321 61 62 131 112 158 114 5 0 33 -16 63 -36z m1874 -843 c43 -86 103 -242
134 -346 272 -938 -119 -1941 -954 -2451 -630 -384 -1429 -416 -2089 -84 -317
159 -608 412 -811 705 l-50 74 122 72 c68 39 137 80 154 90 l31 19 31 -83
c111 -289 400 -547 699 -623 118 -30 254 -32 356 -5 l68 18 167 -138 c144
-120 172 -139 202 -139 30 0 57 18 202 138 l167 139 68 -18 c41 -11 106 -18
164 -18 412 -3 829 348 936 787 32 134 16 337 -35 442 -34 69 -178 116 -347
113 -403 -6 -807 -346 -915 -770 -25 -96 -27 -255 -4 -355 9 -38 12 -73 8 -77
-56 -46 -133 -109 -146 -120 -17 -13 -18 14 -18 522 l0 535 135 112 135 111
53 -18 c41 -14 82 -18 187 -18 126 0 141 3 230 33 111 39 177 74 280 151 304
225 492 611 450 921 -7 47 -13 94 -14 104 -1 15 41 44 184 127 102 60 186 108
187 109 2 0 16 -27 33 -59z m-2930 -176 c224 -82 412 -258 525 -490 29 -60 60
-140 69 -177 21 -87 22 -236 2 -244 -9 -3 -40 16 -76 45 -71 59 -106 66 -145
26 -39 -38 -34 -79 16 -124 44 -41 43 -44 -20 -76 -31 -16 -38 -16 -98 -1
-145 37 -273 114 -398 240 -129 130 -218 282 -262 448 -20 78 -21 244 -1 308
12 41 18 47 63 63 76 26 226 18 325 -18z m2215 26 c-6 -4 -161 -95 -345 -201
-184 -106 -339 -195 -344 -198 -15 -8 4 19 62 91 151 187 381 314 572 316 36
1 60 -3 55 -8z m169 -163 c23 -220 -106 -511 -311 -698 -160 -146 -330 -220
-508 -220 l-80 1 30 25 c108 93 115 101 115 133 0 41 -38 81 -79 81 -21 0 -50
-17 -103 -60 l-73 -60 -3 103 c-1 58 3 122 10 150 l13 49 480 278 c264 153
485 279 491 279 7 1 14 -25 18 -61z m-1174 -697 c0 -48 5 -113 11 -142 6 -30
11 -59 12 -65 2 -8 -71 -74 -145 -133 -17 -13 -18 -3 -18 170 l0 184 63 37
c34 20 65 37 70 37 4 1 7 -39 7 -88z m-302 -281 l-3 -71 -80 67 c-44 37 -80
70 -79 75 1 5 2 16 3 24 0 8 36 35 79 59 l77 45 3 -64 c2 -35 2 -96 0 -135z
m-132 -171 l134 -111 0 -535 c0 -507 -1 -535 -17 -522 -10 8 -47 38 -83 68
-36 30 -67 55 -68 57 -2 1 3 34 12 73 20 86 20 243 2 331 -47 219 -195 445
-392 596 l-75 57 47 27 c36 21 63 28 127 33 45 3 100 12 122 20 22 9 44 16 48
16 5 1 69 -49 143 -110z m-893 -7 l38 -7 -160 -92 c-88 -51 -162 -93 -164 -93
-6 0 12 106 23 135 11 28 38 41 114 54 65 11 101 12 149 3z m2418 -15 c52 -15
63 -34 79 -132 39 -247 -119 -558 -376 -735 -88 -61 -163 -95 -263 -121 -79
-20 -221 -26 -221 -9 0 6 3 10 8 10 4 0 28 20 55 44 56 52 63 91 22 131 -39
40 -73 33 -151 -30 -84 -69 -88 -65 -82 89 4 85 11 128 31 184 74 210 251 410
452 509 157 78 311 99 446 60z m-2055 -132 c87 -62 212 -199 262 -288 72 -125
95 -204 100 -340 3 -69 1 -122 -5 -128 -6 -6 -34 10 -77 46 -78 63 -112 70
-151 30 -41 -40 -34 -79 23 -131 26 -24 50 -44 55 -44 4 0 7 -5 7 -11 0 -8
-29 -10 -97 -7 -221 11 -449 142 -605 347 -52 69 -119 199 -136 264 l-11 38
107 61 c58 34 173 101 256 149 173 99 152 98 272 14z"/>
</g>
</svg>
