<svg width="24" height="26" viewBox="0 0 24 26" fill="none" xmlns="http://www.w3.org/2000/svg">
<path d="M16.2857 7H16.7857V6.5V5.6875C16.7857 4.46856 16.2746 3.30532 15.3744 2.452C14.4751 1.59954 13.2609 1.125 12 1.125C10.7391 1.125 9.52486 1.59954 8.62557 2.452C7.72536 3.30532 7.21429 4.46856 7.21429 5.6875V6.5V7H7.71429H16.2857ZM17.5 6.5V7H18H23.5V22.75C23.5 23.4705 23.1983 24.1672 22.6518 24.6852C22.1044 25.2041 21.3565 25.5 20.5714 25.5H3.42857C2.64349 25.5 1.8956 25.2041 1.34818 24.6852C0.801677 24.1672 0.5 23.4705 0.5 22.75V7H6H6.5V6.5V5.6875C6.5 4.32058 7.0726 3.00387 8.10134 2.02871C9.13099 1.05269 10.5329 0.5 12 0.5C13.4671 0.5 14.869 1.05269 15.8987 2.02871C16.9274 3.00387 17.5 4.32058 17.5 5.6875V6.5ZM1.71429 7.625H1.21429V8.125V22.75C1.21429 23.3225 1.45444 23.8657 1.87241 24.2619C2.28947 24.6573 2.84968 24.875 3.42857 24.875H20.5714C21.1503 24.875 21.7105 24.6573 22.1276 24.2619C22.5456 23.8657 22.7857 23.3225 22.7857 22.75V8.125V7.625H22.2857H1.71429Z" stroke="black"/>
</svg>
