<svg width="22" height="23" viewBox="0 0 22 23" fill="none" xmlns="http://www.w3.org/2000/svg">
<path d="M11.6467 1.8848C11.2739 1.56938 10.7278 1.56936 10.3549 1.88475L1.35416 9.49863C1.12955 9.68864 1 9.96791 1 10.2621V20.6461C1 21.1984 1.44772 21.6461 2 21.6461H6.66556C7.21784 21.6461 7.66556 21.1984 7.66556 20.6461V15.8768C7.66556 15.3246 8.11327 14.8768 8.66556 14.8768H13.3344C13.8867 14.8768 14.3344 15.3246 14.3344 15.8768V20.6461C14.3344 21.1984 14.7822 21.6461 15.3344 21.6461H20C20.5523 21.6461 21 21.1984 21 20.6461V10.2621C21 9.96789 20.8705 9.68864 20.6459 9.49864L11.6467 1.8848Z" stroke="black" stroke-width="1.5"/>
</svg>
